<?xml version="1.0" encoding="UTF-8" standalone="no"?>
<svg width="36px" height="36px" viewBox="0 0 36 36" version="1.1" xmlns="http://www.w3.org/2000/svg" xmlns:xlink="http://www.w3.org/1999/xlink">
    <!-- Generator: Sketch 48.2 (47327) - http://www.bohemiancoding.com/sketch -->
    <title>iconos/m/bus_interurbano</title>
    <desc>Created with Sketch.</desc>
    <defs></defs>
    <g id="Symbols" stroke="none" stroke-width="1" fill="none" fill-rule="evenodd">
        <g id="iconos/m/bus_interurbano">
            <polygon id="Fill-1" fill="#60B245" points="0 36 36 36 36 0 0 0"></polygon>
            <path d="M18,5.1945 L12.9107024,5.1945 C12.9107024,5.1945 12.1475737,5.249625 12.1475737,6.003 C12.1475737,6.756375 12.9107024,6.756375 12.9107024,6.756375 L18,6.756375 L23.0972745,6.756375 C23.0972745,6.756375 23.8524263,6.756375 23.8524263,6.003 C23.8524263,5.249625 23.0972745,5.1945 23.0972745,5.1945 L18,5.1945 Z M18,8.200125 L11.0972745,8.200125 C8.28406825,8.200125 8.51539996,9.762 8.51539996,9.762 C8.51539996,9.762 8.05805451,13.465875 7.93042322,15.4215 C7.81874585,17.240625 9.45136273,16.986 9.45136273,16.986 L18,16.986 L26.5486373,16.986 C26.5486373,16.986 28.1573233,17.240625 28.0642588,15.4215 C27.9738533,13.465875 27.4846,9.762 27.4846,9.762 C27.4846,9.762 27.7212497,8.200125 24.9107024,8.200125 L18,8.200125 Z M28.3035675,22.821375 C28.3035675,23.776875 27.5085309,24.553875 26.5486373,24.553875 C25.5834257,24.553875 24.7937071,23.776875 24.7937071,22.821375 C24.7937071,21.8685 25.5834257,21.088875 26.5486373,21.088875 C27.5085309,21.088875 28.3035675,21.8685 28.3035675,22.821375 Z M11.2116109,22.821375 C11.2116109,23.776875 10.4218923,24.553875 9.45136273,24.553875 C8.49412807,24.553875 7.69643253,23.776875 7.69643253,22.821375 C7.69643253,21.8685 8.49412807,21.088875 9.45136273,21.088875 C10.4218923,21.088875 11.2116109,21.8685 11.2116109,22.821375 Z M18,3 C7.69643253,3 6.99977842,7.56225 6.99977842,7.56225 L6,17.39025 L6,28.42575 L7.99423887,28.42575 L7.99423887,30.507375 C7.99423887,30.507375 8.10857523,32.008875 9.69067139,32.008875 C11.2701086,32.008875 11.5040993,30.507375 11.5040993,30.507375 L11.5040993,28.42575 L18,28.42575 L24.4959007,28.42575 L24.4959007,30.507375 C24.4959007,30.507375 24.7298914,32.008875 26.3093286,32.008875 C27.8967427,32.008875 28.0137381,30.507375 28.0137381,30.507375 L28.0137381,28.42575 L30,28.42575 L30,17.39025 L29.0081985,7.56225 C29.0081985,7.56225 28.3035675,3 18,3 Z" id="Fill-2" fill="#FEFEFE"></path>
        </g>
    </g>
</svg>