<?xml version="1.0" encoding="UTF-8" standalone="no"?>
<svg width="36px" height="36px" viewBox="0 0 36 36" version="1.1" xmlns="http://www.w3.org/2000/svg" xmlns:xlink="http://www.w3.org/1999/xlink">
    <!-- Generator: Sketch 48.2 (47327) - http://www.bohemiancoding.com/sketch -->
    <title>iconos/m/bus_aeropuerto</title>
    <desc>Created with Sketch.</desc>
    <defs></defs>
    <g id="Symbols" stroke="none" stroke-width="1" fill="none" fill-rule="evenodd">
        <g id="iconos/m/bus_aeropuerto">
            <polygon id="Fill-1" fill="#FECB11" points="0 36 36 36 36 0 0 0"></polygon>
            <path d="M18.0027,5.46285 L12.8517,5.46285 C12.8517,5.46285 12.0822,5.51985 12.0822,6.29085 C12.0822,7.06335 12.8517,7.06335 12.8517,7.06335 L18.0027,7.06335 L23.1492,7.06335 C23.1492,7.06335 23.9202,7.06335 23.9202,6.29085 C23.9202,5.51985 23.1492,5.46285 23.1492,5.46285 L18.0027,5.46285 Z M18.0027,8.54085 L11.0172,8.54085 C8.1747,8.54085 8.4117,10.13835 8.4117,10.13835 C8.4117,10.13835 7.9467,13.93185 7.8207,15.94035 C7.7022,17.80485 9.3582,17.54085 9.3582,17.54085 L18.0027,17.54085 L26.6442,17.54085 C26.6442,17.54085 28.2717,17.80485 28.1817,15.94035 C28.0887,13.93185 27.5907,10.13835 27.5907,10.13835 C27.5907,10.13835 27.8277,8.54085 24.9882,8.54085 L18.0027,8.54085 Z M28.4217,23.51835 C28.4217,24.49635 27.6177,25.29285 26.6442,25.29285 C25.6707,25.29285 24.8652,24.49635 24.8652,23.51835 C24.8652,22.54485 25.6707,21.74385 26.6442,21.74385 C27.6177,21.74385 28.4217,22.54485 28.4217,23.51835 Z M11.1357,23.51835 C11.1357,24.49635 10.3347,25.29285 9.3582,25.29285 C8.3847,25.29285 7.5837,24.49635 7.5837,23.51835 C7.5837,22.54485 8.3847,21.74385 9.3582,21.74385 C10.3347,21.74385 11.1357,22.54485 11.1357,23.51835 Z M18.0027,3.21435 C7.5837,3.21435 6.8742,7.88835 6.8742,7.88835 L5.8662,17.95485 L5.8662,29.26185 L7.8762,29.26185 L7.8762,31.39335 C7.8762,31.39335 7.9977,32.93085 9.5952,32.93085 C11.1942,32.93085 11.4312,31.39335 11.4312,31.39335 L11.4312,29.26185 L18.0027,29.26185 L24.5712,29.26185 L24.5712,31.39335 C24.5712,31.39335 24.8082,32.93085 26.4072,32.93085 C28.0047,32.93085 28.1232,31.39335 28.1232,31.39335 L28.1232,29.26185 L30.1377,29.26185 L30.1377,17.95485 L29.1282,7.88835 C29.1282,7.88835 28.4217,3.21435 18.0027,3.21435 Z" id="Fill-2" fill="#1D1D1B"></path>
        </g>
    </g>
</svg>