<?xml version="1.0" encoding="UTF-8" standalone="no"?>
<svg width="36px" height="36px" viewBox="0 0 36 36" version="1.1" xmlns="http://www.w3.org/2000/svg" xmlns:xlink="http://www.w3.org/1999/xlink">
    <!-- Generator: Sketch 48.2 (47327) - http://www.bohemiancoding.com/sketch -->
    <title>iconos/m/renfe</title>
    <desc>Created with Sketch.</desc>
    <defs></defs>
    <g id="Symbols" stroke="none" stroke-width="1" fill="none" fill-rule="evenodd">
        <g id="iconos/m/renfe">
            <path d="M0,18 C0,8.05993908 8.05993908,0 18.0017687,0 C27.9418296,0 36,8.05993908 36,18 C36,27.9400609 27.9418296,36 18.0017687,36 C8.05993908,36 0,27.9400609 0,18" id="Fill-1" fill="#E20714"></path>
            <path d="M18,6 C24.6266823,6 30,11.3733177 30,18 C30,24.6284377 24.6266823,30.0017554 18,30.0017554 C11.3733177,30.0017554 6,24.6284377 6,18 L12.0263312,18 C12.0263312,21.2984201 14.7015799,23.9736688 18,23.9736688 C21.2984201,23.9736688 23.9719134,21.2984201 23.9719134,18 C23.9719134,14.7015799 21.2984201,12.0280866 18,12.0280866 L18,6" id="Fill-4" fill="#FEFEFE"></path>
        </g>
    </g>
</svg>