<?xml version="1.0" encoding="UTF-8" standalone="no"?>
<svg width="36px" height="36px" viewBox="0 0 36 36" version="1.1" xmlns="http://www.w3.org/2000/svg" xmlns:xlink="http://www.w3.org/1999/xlink">
    <!-- Generator: Sketch 48.2 (47327) - http://www.bohemiancoding.com/sketch -->
    <title>iconos/m/tren</title>
    <desc>Created with Sketch.</desc>
    <defs></defs>
    <g id="Symbols" stroke="none" stroke-width="1" fill="none" fill-rule="evenodd">
        <g id="iconos/m/tren" fill="#811066">
            <g id="estación-de-tren">
                <path d="M0,36 L36,36 L36,0 L0,0 L0,36 Z M1.5,34.5141248 L34.5,34.5141248 L34.5,1.5 L1.5,1.5 L1.5,34.5141248 Z" id="Fill-1"></path>
                <path d="M17.0114936,4.15922722 C17.0114936,4.72506306 16.5690646,5.18801966 16.0251372,5.18801966 C15.4864148,5.18801966 15.0387807,4.72506306 15.0387807,4.15922722 C15.0387807,3.59339138 15.4864148,3.13043478 16.0251372,3.13043478 C16.5690646,3.13043478 17.0114936,3.59339138 17.0114936,4.15922722 Z M21.014175,4.15922722 C21.014175,4.72506306 20.571746,5.18801966 20.0330236,5.18801966 C19.4890961,5.18801966 19.0466671,4.72506306 19.0466671,4.15922722 C19.0466671,3.59339138 19.4890961,3.13043478 20.0330236,3.13043478 C20.571746,3.13043478 21.014175,3.59339138 21.014175,4.15922722 Z M18.0551056,6.27095906 L11.7491908,6.27095906 C9.39130435,6.27095906 9.39130435,9.29236001 9.39130435,9.29236001 L9.39130435,25.7801125 C9.39130435,27.5453037 11.3640173,27.3774481 11.3640173,27.3774481 L11.3640173,28.9747837 L13.6698532,28.9747837 L10.6301056,34.6304348 L12.217645,34.6304348 L14.4896482,30.5125577 L18.0551056,30.5125577 L21.620563,30.5125577 L23.9654368,34.5627511 L25.5529763,34.5627511 L22.440358,28.9747837 L24.7461939,28.9747837 L24.7461939,27.3774481 C24.7461939,27.3774481 26.7163043,27.5453037 26.7163043,25.7801125 L26.7163043,9.29236001 C26.7163043,9.29236001 26.7163043,6.27095906 24.3610204,6.27095906 L18.0551056,6.27095906 Z M14.6041592,24.439975 C14.6041592,25.4931335 13.7713517,26.351363 12.7693801,26.351363 C11.7543958,26.351363 10.9241908,25.4931335 10.9241908,24.439975 C10.9241908,23.3949384 11.7543958,22.5285869 12.7693801,22.5285869 C13.7713517,22.5285869 14.6041592,23.3949384 14.6041592,24.439975 Z M25.1808154,24.439975 C25.1808154,25.4931335 24.3558154,26.351363 23.3512413,26.351363 C22.3440646,26.351363 21.511257,25.4931335 21.511257,24.439975 C21.511257,23.3949384 22.3440646,22.5285869 23.3512413,22.5285869 C24.3558154,22.5285869 25.1808154,23.3949384 25.1808154,24.439975 Z M17.6178816,17.4523084 L11.0907523,17.4523084 C11.0907523,17.4523084 10.0523454,17.3954541 10.0523454,16.2556604 L10.0523454,13.1151361 C10.0523454,13.1151361 9.99508984,11.6937781 11.1454053,11.6937781 L17.6178816,11.6937781 L17.6178816,17.4523084 Z M18.4949321,17.4523084 L25.0194589,17.4523084 C25.0194589,17.4523084 26.0630709,17.3954541 26.0630709,16.2556604 L26.0630709,13.1151361 C26.0630709,13.1151361 26.1151214,11.6937781 24.9622034,11.6937781 L18.4949321,11.6937781 L18.4949321,17.4523084 Z M18.0551056,9.85278115 L16.0433548,9.85278115 C15.1871245,9.85278115 15.2183548,9.27340857 15.2183548,9.27340857 L15.2183548,7.9468078 C15.2183548,7.28621476 16.0433548,7.28621476 16.0433548,7.28621476 L18.0551056,7.28621476 L20.0720614,7.28621476 C20.0720614,7.28621476 20.8918564,7.28621476 20.8918564,7.9468078 L20.8918564,9.27340857 C20.8918564,9.27340857 20.9204842,9.85278115 20.0720614,9.85278115 L18.0551056,9.85278115 Z" id="Fill-2"></path>
            </g>
        </g>
    </g>
</svg>