<?xml version="1.0" encoding="UTF-8" standalone="no"?>
<svg width="69px" height="71px" viewBox="0 0 69 71" version="1.1" xmlns="http://www.w3.org/2000/svg" xmlns:xlink="http://www.w3.org/1999/xlink">
    <!-- Generator: Sketch 48.2 (47327) - http://www.bohemiancoding.com/sketch -->
    <title>Group 7</title>
    <desc>Created with Sketch.</desc>
    <defs></defs>
    <g id="0.0_home_v1" stroke="none" stroke-width="1" fill="none" fill-rule="evenodd" transform="translate(-1251.000000, -402.000000)">
        <g id="menu" transform="translate(0.000000, 402.000000)">
            <g id="menu-01">
                <g id="Group-7" transform="translate(1251.000000, 0.000000)">
                    <g id="logos/Logo-Comunidade_header">
                        <g id="CAM" transform="translate(0.372973, 0.373984)">
                            <polygon id="Fill-1" fill="#DB3C36" points="0.041772973 68.4766098 68.2531216 68.4766098 68.2531216 0.0802195122 0.041772973 0.0802195122"></polygon>
                            <polygon id="Stroke-2" stroke="#DB3C36" stroke-width="3.828" points="0.041772973 68.4766098 68.2531216 68.4766098 68.2531216 0.0802195122 0.041772973 0.0802195122"></polygon>
                            <polyline id="Fill-4" fill="#FFFFFE" points="12.8632784 23.115374 11.4873811 27.4292764 6.97254324 27.485935 10.6342054 30.1041951 9.31108378 34.3257236 12.8632784 31.7306504 16.469927 34.269813 15.0904865 30.0516504 18.6921 27.3741138 14.2615541 27.4292764 12.8632784 23.115374"></polyline>
                            <polyline id="Fill-5" fill="#FFFFFE" points="27.0685135 23.115374 25.6926162 27.4292764 21.1777784 27.485935 24.8386946 30.1041951 23.5170649 34.3257236 27.0685135 31.7306504 30.6660243 34.269813 29.2955351 30.0516504 32.8999459 27.3741138 28.4604486 27.4292764 27.0685135 23.115374"></polyline>
                            <polyline id="Fill-6" fill="#FFFFFE" points="41.3315595 23.115374 39.9549162 27.4292764 35.444927 27.485935 39.1073351 30.1041951 37.7857054 34.3257236 41.3315595 31.7306504 44.9326135 34.269813 43.559327 30.0516504 47.1637378 27.3741138 42.7402784 27.4292764 41.3315595 23.115374"></polyline>
                            <polyline id="Fill-7" fill="#FFFFFE" points="34.1576108 32.9517073 32.7850703 37.2661707 28.2681811 37.3220813 31.9283514 39.9416504 30.5998216 44.1613089 34.1576108 41.5703496 37.7605297 44.1053984 36.3881757 39.8864878 39.9841946 37.2102602 35.5543946 37.2661707 34.1576108 32.9517073"></polyline>
                            <polyline id="Fill-8" fill="#FFFFFE" points="19.9307432 32.9517073 18.5485054 37.2661707 14.0435514 37.3220813 17.6966351 39.9416504 16.3757514 44.1613089 19.9307432 41.5703496 23.5254568 44.1053984 22.1465757 39.8864878 25.7524784 37.2102602 21.3262216 37.2661707 19.9307432 32.9517073"></polyline>
                            <polyline id="Fill-9" fill="#FFFFFE" points="48.4443405 32.9517073 47.0690027 37.2661707 42.5584541 37.3220813 46.216573 39.9416504 44.8977405 44.1613089 48.4443405 41.5703496 52.0500568 44.1053984 50.6713622 39.8864878 54.2765189 37.2102602 49.8515676 37.2661707 48.4443405 32.9517073"></polyline>
                            <polyline id="Fill-10" fill="#FFFFFE" points="55.5821108 23.115374 54.2062135 27.4292764 49.6997676 27.485935 53.3543432 30.1041951 52.0306622 34.3257236 55.5821108 31.7306504 59.1796216 34.269813 57.8055892 30.0516504 61.4073892 27.3741138 56.9809459 27.4292764 55.5821108 23.115374"></polyline>
                        </g>
                    </g>
                </g>
            </g>
        </g>
    </g>
</svg>