<?xml version="1.0" encoding="UTF-8" standalone="no"?>
<svg width="120px" height="120px" viewBox="0 0 120 120" version="1.1" xmlns="http://www.w3.org/2000/svg" xmlns:xlink="http://www.w3.org/1999/xlink">
    <!-- Generator: Sketch 48.2 (47327) - http://www.bohemiancoding.com/sketch -->
    <title>lineas/XL/_03ml</title>
    <desc>Created with Sketch.</desc>
    <defs></defs>
    <g id="Symbols" stroke="none" stroke-width="1" fill="none" fill-rule="evenodd">
        <g id="lineas/XL/_03ml">
            <g id="Page-1">
                <polygon id="Fill-1" fill="#FEFEFE" points="2.98186667 116.785067 117.005867 116.785067 117.005867 3.20053333 2.98186667 3.20053333"></polygon>
                <path d="M0,120 L120,120 L120,0 L0,0 L0,120 Z M5.95626667,113.584 L114.017067,113.584 L114.017067,6.41546667 L5.95626667,6.41546667 L5.95626667,113.584 Z" id="Fill-2" fill="#E34A3A"></path>
                <path d="M48.1042133,75.36224 C48.1042133,78.7227733 48.6162133,81.5041067 49.6194133,83.70624 C51.4839467,87.7473067 54.8567467,89.7899733 59.76448,89.7899733 C62.78688,89.7899733 65.3927467,88.67424 67.6407467,86.45824 C69.8759467,84.2417067 70.9938133,81.05504 70.9938133,76.8683733 C70.9938133,71.3499733 68.9202133,67.6705067 64.7602133,65.8161067 C62.3970133,64.7585067 58.68768,64.23744 53.5975467,64.23744 L53.5975467,52.41664 C58.56608,52.3585067 62.03968,51.82304 64.00608,50.86624 C67.41888,49.2443733 69.10848,45.9707733 69.10848,41.03104 C69.10848,37.81504 68.2471467,35.2075733 66.5106133,33.1937067 C64.7602133,31.1953067 62.3362133,30.1953067 59.1719467,30.1953067 C55.5639467,30.1953067 52.8914133,31.4273067 51.19488,33.8897067 C49.4914133,36.3809067 48.6834133,39.66944 48.7639467,43.8123733 L34.43808,43.8123733 C34.5666133,39.64064 35.24608,35.67104 36.4311467,31.9195733 C37.67008,28.6459733 39.64928,25.6177067 42.3415467,22.8225067 C44.3346133,20.8523733 46.7239467,19.3601067 49.4914133,18.31744 C52.2514133,17.2737067 55.6375467,16.7675733 59.66368,16.7675733 C67.11648,16.7675733 73.1346133,18.8097067 77.6919467,22.96704 C82.2770133,27.1249067 84.5655467,32.70144 84.5655467,39.66944 C84.5655467,44.62304 83.1922133,48.7947733 80.45888,52.1851733 C78.7495467,54.31424 76.9447467,55.7627733 75.0866133,56.5451733 C76.4871467,56.5451733 78.4930133,57.83424 81.1186133,60.4273067 C85.0167467,64.32384 86.97568,69.6545067 86.97568,76.4049067 C86.97568,83.50304 84.6871467,89.7611733 80.13568,95.14944 C75.55168,100.53824 68.77888,103.23264 59.81888,103.23264 C48.79168,103.23264 41.0962133,99.35104 36.8082133,91.5713067 C34.5394133,87.4433067 33.2807467,82.0401067 33.0242133,75.36224 L48.1042133,75.36224 Z" id="Fill-3" fill="#E34A3A"></path>
            </g>
        </g>
    </g>
</svg>